<svg id="Layer_1" data-name="Layer 1" xmlns="http://www.w3.org/2000/svg" viewBox="0 0 432 90.63"><defs><style>.cls-1{fill:#006937;}</style></defs><path class="cls-1" d="M277.6,47.31a16.18,16.18,0,0,1-2.74-9.11v-.14c0-8.55,6.26-15.53,15.3-15.53h.14c9,0,15.3,7,15.3,15.53v.14a17.51,17.51,0,0,1-1.52,7.34L301,42.82l-6.94,7.93q9.09,1.5,18.77,2.31h0a25.23,25.23,0,0,0,4.51-14.49v-.15c0-14.5-11.29-26.23-27-26.23s-27.17,11.88-27.17,26.38v.14a27.69,27.69,0,0,0,.36,4.4C268,44.66,272.71,46.07,277.6,47.31Z" transform="translate(-9 -12.18)"/><path class="cls-1" d="M355.77,53q5.28-.44,10.44-1.06a30,30,0,0,0,1.57-10.1V13.06H356.56V42.27c0,5.61-2,9.32-5.5,11.07C352.62,53.24,354.2,53.13,355.77,53Z" transform="translate(-9 -12.18)"/><path class="cls-1" d="M386.87,48.63V13.06H375.65V50.64Q381.35,49.74,386.87,48.63Z" transform="translate(-9 -12.18)"/><path class="cls-1" d="M406.76,43.75V31.64l7.47,9.8q5.4-1.77,10.54-3.76L406,13.06H395.68V46.68Q401.34,45.33,406.76,43.75Z" transform="translate(-9 -12.18)"/><path class="cls-1" d="M341.2,53.8c-4.21-1.53-6.65-5.54-6.65-11.89V13.06H323.33V42.2a27.77,27.77,0,0,0,2.22,11.58Q333.25,54,341.2,53.8Z" transform="translate(-9 -12.18)"/><path class="cls-1" d="M395.68,51.74V64.06h11.08V49.77Q401.3,50.82,395.68,51.74Z" transform="translate(-9 -12.18)"/><path class="cls-1" d="M375.65,54.43v9.63h11.22v-11Q381.32,53.82,375.65,54.43Z" transform="translate(-9 -12.18)"/><path class="cls-1" d="M363.94,55.52c-12.59,1-24.9,1.33-36.79,1.12,3.73,5.46,10,8.22,18.26,8.22,8.76,0,15.47-3.11,19.16-9.39Z" transform="translate(-9 -12.18)"/><path class="cls-1" d="M288,53.72l-.27,0c-7.72-1-15.14-2.37-22.21-3.93,4.11,9,13.2,15.18,24.65,15.18a28.07,28.07,0,0,0,15.22-4.45l8.05,7.2,7.19-8.14-3.9-3.24C306.78,55.83,297.17,55,288,53.72Z" transform="translate(-9 -12.18)"/><path class="cls-1" d="M429.93,44.46h0q-5.52,1.47-11.27,2.79l12.81,16.81H441V41.28q-5.42,1.66-11.07,3.18Z" transform="translate(-9 -12.18)"/><path class="cls-1" d="M429.93,13.06V35.6q5.74-2.41,11.07-5.08V13.06Z" transform="translate(-9 -12.18)"/><path class="cls-1" d="M101.63,28.49q5.91-.36,11.72-.57a14.12,14.12,0,0,1,11-5.39c5.9,0,9.4,1.89,13.33,5.17l7.07-8.52c-5.32-4.52-10.86-7-20-7A26.24,26.24,0,0,0,99.85,28.6Z" transform="translate(-9 -12.18)"/><path class="cls-1" d="M165.74,29.2a14.81,14.81,0,0,1,12.62-6.67A15.11,15.11,0,0,1,192.78,32.7q6.51,1.14,12.56,2.5c-1.54-13-12.28-23-26.84-23-11.79,0-21.17,6.67-25.13,16.12Q159.67,28.66,165.74,29.2Z" transform="translate(-9 -12.18)"/><path class="cls-1" d="M77.28,30.63V13.06H66.06v19Q71.58,31.29,77.28,30.63Z" transform="translate(-9 -12.18)"/><path class="cls-1" d="M245.72,44.46h0l-23.89-31.4H211.47v23.6q5.81,1.47,11.08,3.16V31.64l24.69,32.42h9.55V47.66q-5.73-1.48-11.07-3.2Z" transform="translate(-9 -12.18)"/><path class="cls-1" d="M211.47,64.06h11.08v-15q-5.28-2.57-11.08-4.81Z" transform="translate(-9 -12.18)"/><path class="cls-1" d="M245.72,13.06V35.6c3.49,1.78,7.19,3.46,11.07,5V13.06Z" transform="translate(-9 -12.18)"/><path class="cls-1" d="M193.8,38.5v.2c0,8.75-6.26,15.89-15.3,15.89s-15.44-7.29-15.44-16v-.15a17.13,17.13,0,0,1,1-5.77q-5.78-.75-11.73-1.25a26.52,26.52,0,0,0-1,7.17v.14c0,14.5,11.29,26.23,27,26.23,14.46,0,25.29-10,26.95-22.92C201.6,40.75,197.77,39.57,193.8,38.5Z" transform="translate(-9 -12.18)"/><path class="cls-1" d="M124.4,44.39h11.29v7.28a17.89,17.89,0,0,1-10.56,3.06c-9,0-15.44-6.85-15.44-16.17v-.15a17,17,0,0,1,1.72-7.48c-2.11.13-4.23.27-6.36.44s-4.2.36-6.28.56A27.3,27.3,0,0,0,98,38.56v.14c0,15.08,10.92,26.23,26.81,26.23a33.08,33.08,0,0,0,21.78-8.09V34.7H124.4Z" transform="translate(-9 -12.18)"/><path class="cls-1" d="M77.28,34.88c-3.81.66-7.54,1.39-11.22,2.19v27H97.92V53.5H77.28Z" transform="translate(-9 -12.18)"/><path class="cls-1" d="M12.82,55.07,9,64.06H20.44L24.75,53.5H47l4.31,10.56H63.06L52.93,40.26A224.41,224.41,0,0,0,12.82,55.07Z" transform="translate(-9 -12.18)"/><path class="cls-1" d="M30.74,38.74l5.14-12.57,4.28,10.45q5.07-1.08,10.36-2L41.2,12.69H30.86L18.4,42Q24.37,40.28,30.74,38.74Z" transform="translate(-9 -12.18)"/><path class="cls-1" d="M238.37,87.52v-.09a15.05,15.05,0,0,1,15.34-15.38,15.49,15.49,0,0,1,11.64,4.63L262,80.55c-2.38-2.21-4.93-3.7-8.33-3.7-5.7,0-9.82,4.68-9.82,10.5v.08c0,5.83,4.12,10.59,9.82,10.59,3.65,0,6-1.49,8.54-3.87l3.36,3.4a15.37,15.37,0,0,1-12.07,5.27A15,15,0,0,1,238.37,87.52Z" transform="translate(-9 -12.18)"/><path class="cls-1" d="M268.31,87.52v-.09a15.56,15.56,0,0,1,31.11-.08v.08a15.56,15.56,0,0,1-31.11.09Zm25.63,0v-.09c0-5.77-4.21-10.58-10.11-10.58s-10,4.72-10,10.5v.08C273.79,93.21,278,98,283.91,98S293.94,93.3,293.94,87.52Z" transform="translate(-9 -12.18)"/><path class="cls-1" d="M304.81,72.56H310v25h15.64v4.76H304.81Z" transform="translate(-9 -12.18)"/><path class="cls-1" d="M331.09,72.56h5.23v25H352v4.76H331.09Z" transform="translate(-9 -12.18)"/><path class="cls-1" d="M357.37,72.56h22.05v4.67H362.6V85h14.91v4.67H362.6v8h17v4.68H357.37Z" transform="translate(-9 -12.18)"/><path class="cls-1" d="M384.13,87.52v-.09a15.15,15.15,0,0,1,15.34-15.38,16.08,16.08,0,0,1,11.43,4l-3.31,4a11.69,11.69,0,0,0-8.33-3.19c-5.49,0-9.65,4.81-9.65,10.5v.08c0,6.12,4,10.63,10.11,10.63a12.11,12.11,0,0,0,7.18-2.25V90.24h-7.6V85.69H412v12.5a19,19,0,0,1-12.41,4.63C390.24,102.82,384.13,96.19,384.13,87.52Z" transform="translate(-9 -12.18)"/><path class="cls-1" d="M418.73,72.56h22.06v4.67H424V85h14.92v4.67H424v8h17v4.68H418.73Z" transform="translate(-9 -12.18)"/></svg>