<?xml version="1.0" encoding="utf-8"?>
<!-- Generator: Adobe Illustrator 24.2.3, SVG Export Plug-In . SVG Version: 6.00 Build 0)  -->
<svg version="1.1" id="Layer_1" xmlns="http://www.w3.org/2000/svg" xmlns:xlink="http://www.w3.org/1999/xlink" x="0px" y="0px"
	 viewBox="0 0 160 115" style="enable-background:new 0 0 160 115;" xml:space="preserve">
<style type="text/css">
	.st0{fill:#006937;}
</style>
<path class="st0" d="M116.47,56.6v0.26c0,15.5,11.49,28.4,27.86,28.4v20.04c-15.19,0-28.15-6.28-36.94-16.28l6.25,14.7H91.1
	l-7.37-19.13H45.06l-7.37,19.13H15.67l8.19-19.23c21.42-9.58,45.45-17.67,71.44-23.91l0,0c-0.06-0.94-0.08-1.87-0.08-2.81V57.5
	c0-26.28,20.6-47.8,49.12-47.8v18.75C127.96,28.45,116.47,41.1,116.47,56.6z M92.16,53.21c-6.09,0.82-12.63,1.78-19.41,2.87
	L64.4,34.41l-9.54,24.77c-7.38,1.37-14.84,2.87-22.14,4.5l22.58-53.05h18.75L92.16,53.21z"/>
</svg>
